<?xml version="1.0" encoding="utf-8"?>
<!-- Generator: Adobe Illustrator 24.0.1, SVG Export Plug-In . SVG Version: 6.00 Build 0)  -->
<svg version="1.1" id="Capa_1" xmlns="http://www.w3.org/2000/svg" xmlns:xlink="http://www.w3.org/1999/xlink" x="0px" y="0px"
	 viewBox="0 0 64 64" style="enable-background:new 0 0 64 64;" xml:space="preserve">
<style type="text/css">
	.st0{fill:#333333;}
</style>
<g>
	<path class="st0" d="M32,5.77c8.54,0,9.56,0.03,12.93,0.19c3.12,0.14,4.81,0.66,5.94,1.1c1.49,0.58,2.56,1.27,3.68,2.39
		c1.12,1.12,1.81,2.19,2.39,3.68c0.44,1.13,0.96,2.82,1.1,5.94c0.15,3.37,0.19,4.39,0.19,12.93c0,8.54-0.03,9.56-0.19,12.93
		c-0.14,3.12-0.66,4.81-1.1,5.94c-0.58,1.49-1.27,2.56-2.39,3.68c-1.12,1.12-2.19,1.81-3.68,2.39c-1.13,0.44-2.82,0.96-5.94,1.1
		c-3.37,0.15-4.39,0.19-12.93,0.19c-8.55,0-9.56-0.03-12.93-0.19c-3.12-0.14-4.81-0.66-5.94-1.1c-1.49-0.58-2.56-1.27-3.68-2.39
		c-1.12-1.12-1.81-2.19-2.39-3.68c-0.44-1.13-0.96-2.82-1.1-5.94C5.8,41.56,5.77,40.54,5.77,32c0-8.55,0.03-9.56,0.19-12.93
		c0.14-3.12,0.66-4.81,1.1-5.94c0.58-1.49,1.27-2.56,2.39-3.68c1.12-1.12,2.19-1.81,3.68-2.39c1.13-0.44,2.82-0.96,5.94-1.1
		C22.44,5.8,23.45,5.77,32,5.77 M32,0c-8.69,0-9.78,0.04-13.19,0.19c-3.41,0.16-5.73,0.7-7.77,1.49C8.93,2.5,7.15,3.59,5.37,5.37
		C3.59,7.15,2.5,8.94,1.68,11.04c-0.79,2.04-1.33,4.36-1.49,7.77C0.04,22.22,0,23.31,0,32c0,8.69,0.04,9.78,0.19,13.19
		c0.15,3.41,0.7,5.73,1.49,7.77c0.82,2.11,1.91,3.89,3.69,5.67c1.78,1.78,3.56,2.87,5.67,3.69c2.03,0.79,4.36,1.33,7.77,1.49
		C22.22,63.96,23.31,64,32,64c8.69,0,9.78-0.04,13.19-0.19c3.41-0.16,5.73-0.7,7.77-1.49c2.11-0.82,3.89-1.91,5.67-3.69
		c1.78-1.78,2.87-3.56,3.69-5.67c0.79-2.03,1.33-4.36,1.49-7.77C63.96,41.78,64,40.69,64,32c0-8.69-0.04-9.78-0.19-13.19
		c-0.15-3.41-0.7-5.73-1.49-7.77c-0.82-2.1-1.91-3.89-3.69-5.67c-1.78-1.78-3.56-2.87-5.67-3.69c-2.04-0.79-4.36-1.33-7.77-1.49
		C41.78,0.04,40.69,0,32,0"/>
	<path class="st0" d="M32,15.57c-9.07,0-16.43,7.36-16.43,16.43S22.93,48.43,32,48.43c9.07,0,16.43-7.36,16.43-16.43
		S41.07,15.57,32,15.57 M32,42.67c-5.89,0-10.67-4.78-10.67-10.67c0-5.89,4.78-10.67,10.67-10.67c5.89,0,10.67,4.77,10.67,10.67
		C42.67,37.89,37.89,42.67,32,42.67"/>
	<path class="st0" d="M52.92,14.92c0,2.12-1.72,3.84-3.84,3.84c-2.12,0-3.84-1.72-3.84-3.84c0-2.12,1.72-3.84,3.84-3.84
		C51.2,11.08,52.92,12.8,52.92,14.92"/>
</g>
</svg>
