<?xml version="1.0" encoding="utf-8"?>
<!-- Generator: Adobe Illustrator 24.0.1, SVG Export Plug-In . SVG Version: 6.00 Build 0)  -->
<svg version="1.1" id="Capa_1" xmlns="http://www.w3.org/2000/svg" xmlns:xlink="http://www.w3.org/1999/xlink" x="0px" y="0px"
	 viewBox="0 0 64 64" style="enable-background:new 0 0 64 64;" xml:space="preserve">
<style type="text/css">
	.st0{fill:#333333;}
</style>
<g>
	<path class="st0" d="M1.06,21.27h13.28v42.67H1.06V21.27z M7.69,0.05c4.25,0,7.69,3.45,7.69,7.69c0,4.25-3.44,7.69-7.69,7.69
		C3.43,15.43,0,11.98,0,7.74S3.43,0.05,7.69,0.05"/>
	<path class="st0" d="M22.65,21.27h12.71v5.83h0.18c1.77-3.36,6.1-6.89,12.55-6.89c13.42,0,15.9,8.84,15.9,20.33v23.41H50.75V43.2
		c0-4.95-0.1-11.32-6.9-11.32c-6.9,0-7.95,5.39-7.95,10.96v21.11H22.65V21.27z"/>
</g>
</svg>
