<?xml version="1.0" encoding="utf-8"?>
<!-- Generator: Adobe Illustrator 23.0.0, SVG Export Plug-In . SVG Version: 6.00 Build 0)  -->
<svg version="1.1" id="Capa_1" xmlns="http://www.w3.org/2000/svg" xmlns:xlink="http://www.w3.org/1999/xlink" x="0px" y="0px"
	 viewBox="0 0 1080 1080" style="enable-background:new 0 0 1080 1080;" xml:space="preserve">
<style type="text/css">
	.st0{fill:#C48E30;}
	.st1{fill:#182427;}
</style>
<g>
	<g>
		<path class="st0" d="M355.3,471.1c-1.8-2.4-3.3-5-5.4-7.1c-4.4-4.4-9.4-8.1-14.9-11.3s-11.5-5.5-17.9-7.2
			c-6.4-1.7-13.3-2.6-20.4-2.6h-31.5c4.7,2.5,8.9,5.6,12.3,9.6c3.3,4,5.7,8.8,7.7,14h12.8c8.4,0,15.8,1.3,22.1,4
			c6.3,2.7,11.6,6.2,15.8,10.7c4.1,4.4,7.2,9.5,9.3,15.3c0.9-4,1.8-7.9,3.3-11.7C350.3,480,352.6,475.4,355.3,471.1z"/>
		<path class="st1" d="M345,535.6c-2.1,5.7-5.2,10.8-9.3,15.1c-4.2,4.5-9.5,8.1-15.8,10.7c-6.3,2.7-13.7,4-22.1,4h-14.2v-55.5h-21.7
			V589h34.6c7.3,0,14.3-0.9,20.8-2.6c6.5-1.7,12.5-4.2,18-7.4c5.5-3.2,10.4-7,14.8-11.5c1.8-1.9,3.1-4.2,4.7-6.3
			c-2.6-4.2-4.8-8.7-6.6-13.5C346.9,543.9,345.9,539.7,345,535.6z"/>
		<path class="st1" d="M283.8,503.8L283.8,503.8L283.8,503.8l0.1-8.7c0-0.5-0.1-0.9-0.1-1.3V503.8L283.8,503.8z"/>
		<path class="st1" d="M262.2,499.6v4.2h21.6v-10.1c0,0,0,0,0,0.1v-0.1c-0.2-16-3.9-28.4-11.1-37.2c-2.9-3.5-6.5-6.1-10.6-8.3
			c-1.9-1-4-1.9-6.2-2.6c-5.1-1.7-10.9-2.7-17.5-2.7c-10,0-18.6,2.2-25.9,6.7c-7.3,4.5-12.9,11-16.9,19.5
			c-4.4-9.1-10.2-15.7-17.6-19.9c-7.4-4.2-15.5-6.3-24.3-6.3s-16.4,1.8-22.7,5.5c-6.3,3.7-11.3,9-15,15.9h-0.6v-18.1H93.8V589h21.7
			v-77.4c0-17.3,2.7-30.1,8.2-38.5s13.4-12.7,23.8-12.7c5.7,0,10.5,0.9,14.3,2.6c3.9,1.7,7,4.4,9.4,8s4.1,8.2,5.2,13.7
			s1.6,12,1.6,19.5V589h21.7v-82.6c0-14.8,2.6-26.1,7.9-33.9c5.3-7.9,13.5-11.8,24.7-11.8c10.3,0,17.8,3,22.7,9.1
			c0.4,0.5,0.6,1.1,1,1.6c3.9,5.9,6,14.8,6.2,26.9C262.1,498.8,262.2,499.2,262.2,499.6z"/>
		<path class="st1" d="M283.8,503.8L283.8,503.8v-10c0,0,0,0,0-0.1V503.8z"/>
	</g>
	<g>
		<path class="st1" d="M923.4,571.3c-2.3,2.6-4.9,5-7.5,7.3v9.1h21.7V548l-1.8,4C932.5,559.2,928.4,565.7,923.4,571.3z"/>
		<polygon class="st1" points="915.9,539.3 937.6,545.1 937.6,525.7 915.9,525.7 		"/>
		<path class="st1" d="M979.4,442.7c-2.3-0.6-4.7-0.9-7.2-0.9c-8,0-14.8,1.8-20.5,5.5c-5.6,3.7-10.2,9.4-13.5,17.1h-0.6v-19.5h-21.7
			v11.2c1,1,2.3,1.8,3.2,2.9c6.6,7.5,11.7,16.5,15.1,26.8c1.8,5.6,3,11.5,3.8,17.8c0.9-12.2,3.2-21.7,6.9-28.3
			c4.9-8.6,11.9-13,21-13c2.8,0,5.5,0.3,8.2,0.9s5.1,1.5,7.2,2.6l4.8-20.8C984,444,981.7,443.3,979.4,442.7z"/>
	</g>
	<g>
		<path class="st1" d="M470.5,544.7L470.5,544.7c-5.2,8.9-11.8,15.9-19.6,21.2c-7.9,5.3-17.1,7.9-27.8,7.9c-7.2,0-14-1.3-20.4-3.8
			s-11.9-6.2-16.7-10.8c-4.8-4.7-8.6-10.4-11.4-17.1c-2.8-6.7-4.3-14.2-4.5-22.5h121.2c0.1-11.7-1.4-22.3-4.6-31.8
			c-3.1-9.5-7.7-17.7-13.8-24.6s-13.5-12.1-22.4-15.9c-8.8-3.8-18.9-5.6-30.2-5.6c-10.6,0-20.3,2-29.1,5.9
			c-8.8,3.9-16.3,9.2-22.6,16c-6.3,6.8-11.1,14.7-14.6,23.7c-3.5,9.1-5.2,18.8-5.2,29.1c0,10.5,1.7,20.3,5.1,29.4s8.3,17,14.6,23.7
			c6.3,6.7,13.9,12,22.8,15.8s18.8,5.8,29.8,5.8c7.4,0,14.5-0.9,21.3-2.8s13.1-4.5,19-8c5.8-3.5,11-7.9,15.6-13
			c0.5-0.6,0.8-1.4,1.3-2c-1.6-2.7-3.6-5.3-4.8-8.3C472.1,553.1,471.4,548.9,470.5,544.7z M375.7,486.4c2.6-5.6,6.1-10.5,10.5-14.6
			s9.4-7.4,15.2-9.8c5.8-2.4,12.1-3.5,19.1-3.5c7.7,0,14.4,1.2,20.2,3.5s10.6,5.5,14.5,9.7s7.1,9,9.5,14.6
			c2.4,5.6,4.1,11.7,5.2,18.2h-99.2C371.4,498,373,492,375.7,486.4z"/>
	</g>
	<g>
		<path class="st1" d="M827.6,471.8c4.3-4.1,9.4-7.4,15.2-9.8c5.8-2.4,12.2-3.5,19.1-3.5c7.7,0,14.4,1.2,20.2,3.5s10.6,5.5,14.5,9.7
			s7.1,9,9.5,14.6s4.2,11.7,5.2,18.2H818v15h114.8c0.1-11.7-1.4-22.3-4.6-31.8c-3.1-9.5-7.7-17.7-13.8-24.6
			c-6.1-6.9-13.5-12.1-22.3-15.9c-8.8-3.8-18.9-5.6-30.2-5.6c-10.6,0-20.3,2-29.1,5.9c-8.3,3.7-15.5,8.8-21.5,15.1
			c3.2,6.7,5.3,14.5,6.1,23.5C820,480.6,823.4,475.8,827.6,471.8z"/>
		<path class="st1" d="M892.3,565.9c-7.9,5.3-17.1,7.9-27.8,7.9c-7.2,0-14-1.3-20.4-3.8s-11.9-6.2-16.7-10.8
			c-3.8-3.7-6.8-8.3-9.4-13.3v30.4c4.5,3.5,9.4,6.7,15,9.1c8.9,3.9,18.8,5.8,29.8,5.8c7.4,0,14.5-0.9,21.3-2.8
			c6.8-1.8,13.1-4.5,19-8c5.8-3.5,11-7.9,15.6-13c4.6-5.2,8.4-11.1,11.3-17.7l-18.1-4.8C906.7,553.6,900.2,560.6,892.3,565.9z"/>
	</g>
	<path class="st1" d="M605.7,431c0,1.8-0.4,3.6-1.2,5.2c-0.8,1.6-1.8,3.1-3,4.3s-2.7,2.2-4.4,3c-1.7,0.7-3.5,1.1-5.3,1.1
		c-1.9,0-3.8-0.4-5.5-1.1s-3.2-1.7-4.5-3s-2.2-2.7-3-4.3c-0.7-1.6-1.1-3.4-1.1-5.2c0-3.9,1.3-7.1,4-9.7s6-3.9,10-3.9
		c1.8,0,3.6,0.3,5.3,1c1.7,0.7,3.2,1.6,4.4,2.9s2.3,2.7,3,4.3C605.3,427.3,605.7,429,605.7,431z"/>
	<g>
		<path class="st1" d="M570.3,528c-1.7-2.6-3.3-5.3-5.6-7.7c-3.2-3.4-6.6-6.7-10.1-9.7c-3.5-3.1-7-6-10.4-8.9
			c-3.4-2.9-6.3-5.7-8.8-8.6c-2.5-2.9-4.2-5.8-5.3-8.7c-1.1-2.9-1.1-6,0-9.3c1-2.8,2.4-5.3,4.3-7.4c1.9-2.1,4.1-3.8,6.6-5
			c2.6-1.2,5.4-1.9,8.5-2.1c3.1-0.2,6.3,0.3,9.7,1.5c5.7,1.9,10.2,4.9,13.7,9c1.9,2.3,3,5.3,4.4,7.9c2.8-6.1,6.3-11.8,10.4-16.8
			c-0.9-1.2-1.7-2.5-2.7-3.6c-4.9-5.4-11.8-9.6-20.7-12.6c-6-2-11.9-3-17.6-2.9s-10.9,1.1-15.7,3.1c-4.8,2-9,4.9-12.6,8.8
			s-6.3,8.5-8.1,14c-1.7,5.1-2.3,9.9-1.6,14.2c0.6,4.3,2,8.4,4.2,12.1c2.2,3.7,4.9,7.2,8.1,10.5c3.3,3.3,6.7,6.5,10.2,9.5
			s6.9,6.1,10.3,9c3.4,3,6.2,6,8.6,9.2c2.3,3.1,4,6.4,4.9,9.8c0.9,3.4,0.8,7.1-0.6,11c-1.1,3.3-2.8,6.2-5,8.8
			c-2.3,2.6-4.9,4.7-8,6.2c-3.1,1.6-6.5,2.5-10.2,2.8c-3.7,0.3-7.6-0.3-11.6-1.6c-4.2-1.4-8-3.4-11.3-6s-6.1-5.6-8.5-9
			c-2.4-3.4-4.3-7-5.8-11c-1.5-3.9-2.5-7.9-3.1-12l-15.9,6.3c0.7,5.5,2,10.8,4.1,15.7c2,5,4.7,9.5,7.9,13.7
			c3.2,4.1,7.1,7.8,11.6,10.9c4.5,3.1,9.5,5.6,15.1,7.5c6.5,2.2,12.9,3.2,19.3,2.9c6.3-0.3,12.2-1.6,17.7-4
			c5.5-2.4,10.3-5.9,14.4-10.4c4.2-4.5,7.3-9.9,9.4-16.2c0.9-2.6,1.4-5,1.8-7.4c-0.5-1.3-1.3-2.4-1.8-3.7
			C572.5,541.5,571.2,534.8,570.3,528z"/>
		<path class="st1" d="M799.6,455.5c-8.2-9.2-19.8-13.7-34.9-13.7c-10.2,0-19,2.1-26.4,6.2c-4.8,2.7-8.7,6.3-12.2,10.4v24.4
			c1.3-2.8,2.1-6,3.8-8.4c3.2-4.6,7.2-8.2,11.9-10.9c4.7-2.6,10.2-3.9,16.3-3.9c6.4,0,11.6,1,15.8,3s7.4,4.8,9.8,8.4
			c2.4,3.6,4,7.9,5,13c1,5,1.5,10.6,1.5,16.6v87.4h21.7v-92.1C811.8,478.1,807.8,464.7,799.6,455.5z"/>
	</g>
	<path class="st1" d="M714.4,616.6c-3.7,10.5-8.8,19.2-15.3,26s-14.3,11.8-23.2,15.1c-9,3.3-18.7,4.9-29.2,4.9
		c-9.5,0-18.4-1.3-26.8-3.8s-15.9-6.4-22.3-11.4c-6.5-5.1-11.7-11.3-15.8-18.9c-4-7.5-6.5-16.2-7.2-26h21.8c0.5,6.5,2.2,12.3,5,17.4
		c2.8,5.2,6.6,9.5,11.1,13.1s9.8,6.3,15.7,8.2s12,2.8,18.5,2.8c10,0,18.3-1.6,25-4.8c6.6-3.2,11.9-7.8,15.8-13.7s6.8-13.1,8.4-21.5
		c1.6-8.4,2.5-17.7,2.5-28.1v-13h-0.6c-2.2,4.4-5.2,8.4-9,11.9s-8,6.5-12.7,8.9c-4.7,2.4-9.6,4.2-14.8,5.5s-10.4,1.9-15.6,1.9
		c-10.4,0-19.9-1.9-28.5-5.7c-8.6-3.8-16-9.1-22.1-15.8s-11-14.7-14.4-23.9c-3.4-9.2-5.1-19.2-5.1-29.9c0-10.3,1.7-20,5.1-29
		c3.4-9,8.1-16.9,14.3-23.5c6.1-6.6,13.5-11.9,22.1-15.8s18.2-5.8,28.7-5.8c5.3,0,10.5,0.6,15.5,1.8s9.9,3,14.5,5.3
		s8.8,5.1,12.5,8.5s7,7.2,9.7,11.5h0.6v-23.7h21.5v134.2C719.9,593.6,718.1,606.1,714.4,616.6z M699.3,514.5
		c0-7.5-1.2-14.6-3.7-21.2c-2.5-6.6-6-12.4-10.5-17.4c-4.5-5-10-9-16.4-11.9c-6.4-2.9-13.5-4.3-21.3-4.3c-7.9,0-15,1.5-21.3,4.3
		c-6.3,2.9-11.7,6.9-16.1,11.9s-7.8,11-10.2,17.9s-3.5,14.2-3.5,22.1c0,7.3,1.2,14.4,3.7,21.3c2.5,6.8,6,12.9,10.5,18.2
		c4.5,5.3,10,9.5,16.5,12.7c6.5,3.2,13.7,4.8,21.5,4.8c8.2,0,15.5-1.6,21.8-4.8s11.6-7.5,16-12.9c4.3-5.4,7.6-11.6,9.8-18.7
		C698.1,529.6,699.3,522.2,699.3,514.5z"/>
</g>
</svg>
