<?xml version="1.0" encoding="utf-8"?>
<!-- Generator: Adobe Illustrator 24.0.1, SVG Export Plug-In . SVG Version: 6.00 Build 0)  -->
<svg version="1.1" id="Capa_1" xmlns="http://www.w3.org/2000/svg" xmlns:xlink="http://www.w3.org/1999/xlink" x="0px" y="0px"
	 viewBox="0 0 64 64" style="enable-background:new 0 0 64 64;" xml:space="preserve">
<style type="text/css">
	.st0{fill:#333333;}
</style>
<path class="st0" d="M32.9,0C15.35,0,6.03,11.78,6.03,24.61c0,5.97,3.18,13.39,8.26,15.75c0.77,0.36,1.18,0.2,1.36-0.54
	c0.14-0.57,0.82-3.33,1.13-4.61c0.1-0.41,0.05-0.76-0.28-1.16c-1.68-2.04-3.02-5.79-3.02-9.28c0-8.97,6.79-17.65,18.36-17.65
	c9.99,0,16.99,6.81,16.99,16.55c0,11-5.56,18.62-12.78,18.62c-3.99,0-6.98-3.3-6.02-7.35c1.14-4.84,3.37-10.05,3.37-13.54
	c0-3.12-1.68-5.73-5.15-5.73c-4.08,0-7.36,4.22-7.36,9.87c0,3.6,1.22,6.04,1.22,6.04s-4.03,17.04-4.77,20.21
	c-0.72,3.07-0.56,7.23-0.27,10.37c0.07,0.79,0.6,1.46,1.35,1.72c0.91,0.32,1.93-0.04,2.42-0.88c1.56-2.67,3.43-6.27,4.2-9.23
	c0.49-1.9,2.53-9.67,2.53-9.67c1.33,2.53,5.2,4.67,9.32,4.67c12.27,0,21.1-11.28,21.1-25.29C57.97,10.05,47.01,0,32.9,0"/>
</svg>
